<svg width="149" height="118" viewBox="0 0 149 118" fill="none" xmlns="http://www.w3.org/2000/svg">
<g clip-path="url(#clip0_104_452)">
<path d="M52.8018 51.1983C64.5062 62.9259 83.5038 62.9346 95.2194 51.2189C106.935 39.5033 106.926 20.5057 95.1988 8.80134C83.4945 -2.92569 64.4969 -2.93498 52.7812 8.7807C41.0655 20.4964 41.0748 39.494 52.8018 51.1983ZM46.1566 31.0568H53.3023C53.5428 35.8177 55.4235 40.3489 58.6251 43.8808L53.5732 48.9322C49.0368 44.0562 46.4048 37.7118 46.1566 31.0568ZM60.1199 45.3756C63.6517 48.5766 68.1825 50.4569 72.9433 50.6973V57.843C66.2883 57.5948 59.9439 54.9623 55.068 50.4259L60.1199 45.3756ZM75.0568 50.6973C79.8481 50.4553 84.4057 48.5529 87.9468 45.3162L92.9971 50.3666C88.1135 54.9391 81.7427 57.5943 75.0568 57.8435V50.6973ZM89.4338 43.8147C92.6004 40.2922 94.4589 35.7872 94.6978 31.0568H101.843C101.597 37.6819 98.9871 44 94.4862 48.8677L89.4338 43.8147ZM94.6978 28.9434C94.4573 24.1825 92.5771 19.6512 89.375 16.1194L94.4269 11.0675C98.9638 15.9434 101.596 22.2878 101.845 28.9434H94.6978ZM87.8813 14.6251C84.3489 11.4235 79.8176 9.54279 75.0568 9.30235V2.15561C81.7123 2.40379 88.0567 5.03629 92.9326 9.57272L87.8813 14.6251ZM72.9433 9.30235C68.2129 9.54124 63.7085 11.3998 60.1854 14.5663L55.1325 9.51338C60.0007 5.01255 66.3183 2.40276 72.9433 2.15561V9.30235ZM74.0001 11.3895C84.2622 11.3889 92.6112 19.7379 92.6112 30.0001C92.6112 40.2623 84.2622 48.6107 74.0001 48.6107C63.7379 48.6107 55.3889 40.2628 55.3889 30.0001C55.3889 19.7374 63.7384 11.3889 74.0001 11.3889V11.3895ZM53.6336 11.003L58.6844 16.0539C55.4472 19.5945 53.5448 24.152 53.3028 28.9434H46.1571C46.4063 22.2579 49.061 15.8872 53.6336 11.003Z" fill="white"/>
<path d="M78.0432 22.2534C78.9201 22.2534 79.6311 21.5544 79.6311 20.6921C79.6311 19.8299 78.9201 19.1309 78.0432 19.1309C77.1662 19.1309 76.4553 19.8299 76.4553 20.6921C76.4553 21.5544 77.1662 22.2534 78.0432 22.2534Z" fill="white"/>
<path d="M79.6239 26.8256C79.6239 23.5149 76.9008 20.8245 73.5509 20.8245C70.2011 20.8245 67.478 23.508 67.478 26.8256C67.478 30.1433 70.2011 32.8267 73.5509 32.8267C76.9008 32.8267 79.6239 30.1433 79.6239 26.8256ZM69.3863 26.8465C69.3863 24.5534 71.2666 22.6925 73.5927 22.6925C75.9188 22.6925 77.7992 24.5534 77.7992 26.8465C77.7992 29.1396 75.9188 31.0006 73.5927 31.0006C71.2666 31.0006 69.3863 29.1396 69.3863 26.8465Z" fill="white"/>
<path d="M75.4873 32.6455C73.189 32.6455 71.3226 34.4856 71.3226 36.7577C71.3226 39.0299 73.189 40.87 75.4873 40.87C77.7855 40.87 79.6519 39.0299 79.6519 36.7577C79.6519 34.4856 77.7855 32.6455 75.4873 32.6455ZM75.5151 39.1554C74.178 39.1554 73.0915 38.082 73.0915 36.7647C73.0915 35.4474 74.178 34.374 75.5151 34.374C76.8523 34.374 77.9387 35.4474 77.9387 36.7647C77.9387 38.082 76.8523 39.1554 75.5151 39.1554Z" fill="white"/>
</g>
<g clip-path="url(#clip1_104_452)">
<path d="M35.8614 80.5508C33.9832 80.5508 31.7537 81.5742 30.5781 83.5402C30.47 83.7153 30.1998 83.6345 30.1998 83.4325V80.9548C30.1998 80.847 30.1052 80.7528 29.9971 80.7528H26.6866C26.5785 80.7528 26.4839 80.847 26.4839 80.9548V101.032C26.4839 101.14 26.5785 101.234 26.6866 101.234H29.9971C30.1052 101.234 30.1998 101.14 30.1998 101.032V91.0811C30.1998 87.6608 32.0374 84.1866 35.5236 84.1866C36.2668 84.1866 36.8073 84.2808 37.4288 84.5097L37.5505 84.5501V80.7258H37.4829C36.9424 80.5912 36.4424 80.5508 35.8614 80.5508Z" fill="white"/>
<path d="M116.206 80.3496C113.355 80.3496 110.895 81.7905 109.666 84.1604C109.585 84.3086 109.382 84.3086 109.301 84.1604C108.139 81.7366 105.923 80.3496 103.153 80.3496C100.802 80.3496 98.7208 81.373 97.3966 83.1101C97.275 83.2582 97.0318 83.1774 97.0318 82.9889V80.9556C97.0318 80.8478 96.9372 80.7536 96.8291 80.7536H93.5186C93.4105 80.7536 93.3159 80.8478 93.3159 80.9556V101.033C93.3159 101.141 93.4105 101.235 93.5186 101.235H96.8291C96.9372 101.235 97.0318 101.141 97.0318 101.033V91.0819C97.0318 86.692 99.2748 83.743 102.612 83.743C105.072 83.743 106.544 85.7898 106.544 89.2101V101.033C106.544 101.141 106.639 101.235 106.747 101.235H110.058C110.166 101.235 110.26 101.141 110.26 101.033V91.0819C110.26 86.6247 112.436 83.743 115.8 83.743C118.287 83.743 119.773 85.7898 119.773 89.2101V101.033C119.773 101.141 119.868 101.235 119.976 101.235H123.286C123.394 101.235 123.489 101.141 123.489 101.033V88.685C123.489 83.6218 120.638 80.3496 116.206 80.3496V80.3496Z" fill="white"/>
<path d="M85.8845 82.0327C87.586 82.0327 88.9653 80.6822 88.9653 79.0164C88.9653 77.3505 87.586 76 85.8845 76C84.183 76 82.8037 77.3505 82.8037 79.0164C82.8037 80.6822 84.183 82.0327 85.8845 82.0327Z" fill="white"/>
<path d="M88.9512 90.8656C88.9512 84.4693 83.6679 79.2715 77.1685 79.2715C70.669 79.2715 65.3857 84.4558 65.3857 90.8656C65.3857 97.2753 70.669 102.46 77.1685 102.46C83.6679 102.46 88.9512 97.2753 88.9512 90.8656ZM69.0881 90.906C69.0881 86.4757 72.7364 82.8803 77.2495 82.8803C81.7626 82.8803 85.4109 86.4757 85.4109 90.906C85.4109 95.3362 81.7626 98.9316 77.2495 98.9316C72.7364 98.9316 69.0881 95.3362 69.0881 90.906V90.906Z" fill="white"/>
<path d="M80.9251 102.109C76.466 102.109 72.8447 105.664 72.8447 110.054C72.8447 114.444 76.466 117.999 80.9251 117.999C85.3841 117.999 89.0054 114.444 89.0054 110.054C89.0054 105.664 85.3841 102.109 80.9251 102.109ZM80.9791 114.686C78.3848 114.686 76.2768 112.613 76.2768 110.068C76.2768 107.523 78.3848 105.449 80.9791 105.449C83.5735 105.449 85.6814 107.523 85.6814 110.068C85.6814 112.613 83.5735 114.686 80.9791 114.686Z" fill="white"/>
<path d="M10.9855 79.9727C8.06684 79.9727 5.43194 81.0903 3.45915 82.9082V79.9996H0V90.2606C0 90.4356 0 90.5972 0 90.7723C0 90.9473 0 91.1089 0 91.284V108.817H3.47266V98.6498C5.44545 100.468 8.08035 101.585 10.999 101.585C17.066 101.585 21.9845 96.7511 21.9845 90.7857C21.9845 84.8204 17.066 79.9727 10.9855 79.9727ZM11.0666 98.2997C6.86424 98.2997 3.45915 94.9467 3.45915 90.8261C3.45915 86.7056 6.86424 83.3526 11.0666 83.3526C15.2689 83.3526 18.674 86.7056 18.674 90.8261C18.674 94.9467 15.2689 98.2997 11.0666 98.2997Z" fill="white"/>
<path d="M61.157 90.3414V79.9727H57.6979V82.9755C55.7251 81.1577 53.0902 80.04 50.1715 80.04C44.1045 80.04 39.186 84.8742 39.186 90.8396C39.186 96.805 44.1045 101.639 50.1715 101.639C53.0902 101.639 55.7251 100.522 57.6979 98.7037V101.599H61.157V91.3378C61.157 91.1628 61.157 91.0012 61.157 90.8261C61.157 90.6511 61.157 90.4895 61.157 90.3144V90.3414ZM50.104 98.2997C45.9016 98.2997 42.4965 94.9467 42.4965 90.8261C42.4965 86.7056 45.9016 83.3526 50.104 83.3526C54.3063 83.3526 57.7114 86.7056 57.7114 90.8261C57.7114 94.9467 54.3063 98.2997 50.104 98.2997Z" fill="white"/>
<path d="M149 90.8531C149 90.678 149 90.5164 149 90.3414V79.9727H145.541V82.9755C143.568 81.1577 140.933 80.04 138.014 80.04C131.947 80.04 127.029 84.8742 127.029 90.8396C127.029 96.805 131.947 101.639 138.014 101.639C140.933 101.639 143.568 100.522 145.541 98.7037V101.599H149V91.3378C149 91.1628 149 91.0012 149 90.8261V90.8531ZM137.933 98.2997C133.731 98.2997 130.326 94.9467 130.326 90.8261C130.326 86.7056 133.731 83.3526 137.933 83.3526C142.136 83.3526 145.541 86.7056 145.541 90.8261C145.541 94.9467 142.136 98.2997 137.933 98.2997Z" fill="white"/>
</g>
<defs>
<clipPath id="clip0_104_452">
<rect width="60" height="60" fill="white" transform="translate(44)"/>
</clipPath>
<clipPath id="clip1_104_452">
<rect width="149" height="42" fill="white" transform="translate(0 76)"/>
</clipPath>
</defs>
</svg>
